<?xml version="1.0" encoding="UTF-8" standalone="no"?>
<svg
   xmlns:dc="http://purl.org/dc/elements/1.1/"
   xmlns:cc="http://creativecommons.org/ns#"
   xmlns:rdf="http://www.w3.org/1999/02/22-rdf-syntax-ns#"
   xmlns:svg="http://www.w3.org/2000/svg"
   xmlns="http://www.w3.org/2000/svg"
   viewBox="0 0 400 400"
   height="400"
   width="400"
   xml:space="preserve"
   id="svg2"
   version="1.1"><metadata
     id="metadata8"><rdf:RDF><cc:Work
         rdf:about=""><dc:format>image/svg+xml</dc:format><dc:type
           rdf:resource="http://purl.org/dc/dcmitype/StillImage" /></cc:Work></rdf:RDF></metadata><defs
     id="defs6"><clipPath
       id="clipPath18"
       clipPathUnits="userSpaceOnUse"><path
         id="path16"
         d="M 0,300 H 300 V 0 H 0 Z" /></clipPath></defs><g
     transform="matrix(1.3333333,0,0,-1.3333333,0,400)"
     id="g10"><g
       id="g12"><g
         clip-path="url(#clipPath18)"
         id="g14"><g
           transform="translate(150.3085,1.1732)"
           id="g20"><path
             id="path22"
             style="fill:#ffffff;fill-opacity:1;fill-rule:nonzero;stroke:none"
             d="m 0,0 c -82.387,0 -149.414,67.027 -149.414,149.413 0,82.387 67.027,149.414 149.414,149.414 82.387,0 149.414,-67.027 149.414,-149.414 C 149.414,67.027 82.387,0 0,0" /></g><g
           transform="translate(150.3085,16.1769)"
           id="g24"><path
             id="path26"
             style="fill:#553457;fill-opacity:1;fill-rule:nonzero;stroke:none"
             d="m 0,0 c -74.114,0 -134.41,60.295 -134.41,134.409 0,3.727 0.159,7.416 0.458,11.067 0.174,-0.526 0.368,-1.032 0.591,-1.509 2.165,-3.316 12.351,-17.208 28.27,-12.698 10.678,3.404 14.526,11.293 14.526,11.293 l 0.003,0.01 c -0.239,-2.698 -0.368,-5.419 -0.368,-8.163 0,-44.005 30.89,-81.149 73.804,-89.297 4.107,-4.886 10.259,-7.998 17.126,-7.998 6.867,0 13.019,3.112 17.126,7.998 42.912,8.148 73.804,45.293 73.804,89.297 0,1.316 -0.039,2.625 -0.094,3.931 4.969,-5.941 12.405,-9.616 20.558,-9.616 9.64,0 18.105,5.117 22.829,12.776 0.123,-2.348 0.187,-4.712 0.187,-7.091 C 134.41,60.295 74.114,0 0,0 m 19.124,62.732 c -1.794,0 -3.247,-1.454 -3.247,-3.248 C 15.877,50.73 8.754,43.609 0,43.609 c -8.754,0 -15.877,7.121 -15.877,15.875 0,1.794 -1.454,3.248 -3.247,3.248 -1.794,0 -3.248,-1.454 -3.248,-3.248 0,-3.299 0.724,-6.432 2.012,-9.254 -38.748,9.257 -66.24,43.664 -66.24,84.179 0,29.054 14.272,55.744 38.308,71.897 3.745,-7.703 17.586,-30.926 48.292,-30.926 30.705,0 45.157,22.853 49.084,30.386 C 72.623,189.56 86.6,163.07 86.6,134.409 86.6,93.896 59.107,59.487 20.36,50.23 c 1.288,2.822 2.012,5.955 2.012,9.254 0,1.794 -1.454,3.248 -3.248,3.248 M 0,275.314 c -77.695,0 -140.905,-63.209 -140.905,-140.905 0,-77.694 63.21,-140.904 140.905,-140.904 77.695,0 140.905,63.21 140.905,140.904 0,77.696 -63.21,140.905 -140.905,140.905" /></g><g
           transform="translate(42.7408,123.5765)"
           id="g28"><path
             id="path30"
             style="fill:#ffc85e;fill-opacity:1;fill-rule:nonzero;stroke:none"
             d="M 0,0 2.99,0.629 C 3.41,0.717 3.812,0.443 3.901,0.023 3.99,-0.396 3.73,-0.809 3.311,-0.898 l -7.542,-1.586 c -0.42,-0.088 -0.82,0.173 -0.909,0.593 -0.089,0.419 0.167,0.844 0.588,0.933 l 3.167,0.666 -0.881,4.184 -3.168,-0.666 c -0.418,-0.087 -0.822,0.186 -0.911,0.606 -0.087,0.42 0.174,0.819 0.594,0.908 L 1.791,6.327 C 2.212,6.415 2.613,6.141 2.702,5.721 2.791,5.301 2.529,4.902 2.11,4.813 L -0.88,4.184 Z" /></g><g
           transform="translate(41.9649,114.4039)"
           id="g32"><path
             id="path34"
             style="fill:#ffc85e;fill-opacity:1;fill-rule:nonzero;stroke:none"
             d="m 0,0 c -0.406,-0.753 -0.469,-1.542 -0.184,-2.392 0.277,-0.826 0.803,-1.417 1.577,-1.76 0.785,-0.341 1.616,-0.364 2.501,-0.066 0.876,0.293 1.525,0.812 1.935,1.552 0.408,0.74 0.474,1.53 0.197,2.355 C 5.74,0.539 5.214,1.13 4.436,1.486 3.664,1.831 2.833,1.854 1.958,1.56 1.059,1.259 0.41,0.74 0,0 M 5.038,2.881 C 6.169,2.328 6.947,1.437 7.364,0.192 7.783,-1.052 7.698,-2.232 7.131,-3.367 6.567,-4.502 5.647,-5.276 4.391,-5.697 3.121,-6.123 1.922,-6.058 0.787,-5.493 c -1.136,0.565 -1.914,1.456 -2.33,2.7 -0.419,1.244 -0.334,2.424 0.236,3.547 0.573,1.111 1.493,1.885 2.762,2.31 1.258,0.421 2.456,0.357 3.583,-0.183" /></g><g
           transform="translate(51.1323,103.5134)"
           id="g36"><path
             id="path38"
             style="fill:#ffc85e;fill-opacity:1;fill-rule:nonzero;stroke:none"
             d="m 0,0 c -0.812,0.261 -1.655,0.192 -2.512,-0.212 -0.843,-0.4 -1.42,-1.004 -1.727,-1.809 -0.292,-0.812 -0.245,-1.638 0.15,-2.47 0.343,-0.727 0.861,-1.243 1.562,-1.543 l 1.208,0.572 -0.649,1.372 c -0.172,0.364 -0.019,0.766 0.321,0.927 0.364,0.172 0.784,0.013 0.945,-0.328 l 0.954,-2.017 c 0.194,-0.41 0.033,-0.889 -0.389,-1.088 l -1.641,-0.777 c -0.387,-0.183 -0.829,-0.162 -1.321,0.063 -1.041,0.469 -1.819,1.264 -2.347,2.379 -0.55,1.16 -0.611,2.322 -0.208,3.504 0.415,1.186 1.233,2.062 2.466,2.645 1.253,0.594 2.475,0.684 3.638,0.258 C 1.62,1.038 2.495,0.219 3.072,-1.001 3.622,-2.162 3.683,-3.325 3.247,-4.464 3.034,-4.953 2.666,-5.055 2.256,-4.889 1.861,-4.718 1.757,-4.38 1.947,-3.873 2.235,-3.177 2.182,-2.427 1.806,-1.63 1.423,-0.82 0.818,-0.274 0,0" /></g><g
           transform="translate(57.6949,91.4632)"
           id="g40"><path
             id="path42"
             style="fill:#ffc85e;fill-opacity:1;fill-rule:nonzero;stroke:none"
             d="m 0,0 -3.82,-0.733 1.45,-2.357 z m -3.296,-4.314 -2.034,3.309 -1.584,-0.303 c -0.425,-0.078 -0.822,0.196 -0.9,0.621 -0.089,0.417 0.167,0.819 0.592,0.897 L 0.603,1.622 C 1.173,1.713 1.59,1.557 1.848,1.136 2.112,0.704 2.068,0.234 1.696,-0.254 l -4.753,-6.309 c -0.262,-0.343 -0.736,-0.391 -1.068,-0.122 -0.345,0.261 -0.41,0.74 -0.148,1.083 z" /></g><g
           transform="translate(63.6528,83.8995)"
           id="g44"><path
             id="path46"
             style="fill:#ffc85e;fill-opacity:1;fill-rule:nonzero;stroke:none"
             d="m 0,0 -2.516,-1.942 1.055,-1.367 c 0.863,-1.119 1.713,-1.349 2.556,-0.699 0.831,0.642 0.825,1.522 -0.04,2.642 z m -2.486,-4.296 -1.151,1.489 -1.9,-1.466 c -0.339,-0.262 -0.821,-0.19 -1.083,0.148 -0.26,0.339 -0.198,0.813 0.14,1.074 l 6,4.63 C -0.11,1.865 0.389,1.792 0.666,1.432 L 2.283,-0.664 C 3.592,-2.36 3.527,-4.081 2.049,-5.222 0.989,-6.039 -0.192,-6.1 -1.275,-5.442 l -0.89,-2.392 C -2.4,-8.36 -2.751,-8.499 -3.176,-8.352 c -0.486,0.183 -0.636,0.526 -0.448,1.047 z" /></g><g
           transform="translate(70.1986,76.7787)"
           id="g48"><path
             id="path50"
             style="fill:#ffc85e;fill-opacity:1;fill-rule:nonzero;stroke:none"
             d="M 0,0 C 0.338,0.321 0.844,0.3 1.159,-0.03 L 4.613,-3.664 C 4.873,-3.937 4.871,-4.387 4.579,-4.665 4.307,-4.924 3.865,-4.914 3.588,-4.622 L 0.643,-1.523 -1.061,-3.144 1.74,-6.091 C 2,-6.364 1.998,-6.814 1.706,-7.092 1.414,-7.369 0.973,-7.34 0.715,-7.067 l -2.804,2.947 -1.835,-1.746 2.945,-3.097 c 0.277,-0.292 0.266,-0.733 -0.006,-0.993 -0.292,-0.277 -0.742,-0.257 -1.002,0.017 l -3.455,3.633 c -0.313,0.33 -0.311,0.835 0.03,1.158 z" /></g><g
           transform="translate(73.9281,64.3067)"
           id="g52"><path
             id="path54"
             style="fill:#ffc85e;fill-opacity:1;fill-rule:nonzero;stroke:none"
             d="m 0,0 c 0.419,0.068 0.835,-0.222 0.888,-0.661 0.04,-0.29 0.087,-0.536 0.129,-0.726 0.099,-0.36 0.455,-1.042 1.047,-1.55 0.837,-0.719 1.63,-0.75 2.095,-0.209 0.448,0.522 0.361,1.179 -0.286,1.958 L 3.154,-0.332 C 2.049,1.03 1.89,2.38 2.846,3.492 3.353,4.083 3.996,4.352 4.78,4.31 5.567,4.269 6.29,3.956 6.969,3.372 7.332,3.059 7.616,2.731 7.844,2.38 8.074,2.029 8.214,1.755 8.286,1.539 8.358,1.324 8.432,1.071 8.493,0.763 8.58,0.328 8.298,-0.08 7.88,-0.148 7.461,-0.217 7.072,0.067 7.005,0.484 6.871,1.266 6.548,1.886 6.007,2.351 5.218,3.028 4.459,2.979 4.053,2.506 3.63,2.014 3.742,1.369 4.391,0.59 L 4.979,-0.121 C 6.262,-1.633 6.33,-3.009 5.357,-4.141 4.85,-4.732 4.199,-5.011 3.406,-4.979 2.62,-4.937 1.818,-4.574 1.002,-3.872 c -0.393,0.338 -0.706,0.709 -0.958,1.114 -0.243,0.395 -0.395,0.716 -0.458,0.941 -0.055,0.234 -0.123,0.534 -0.189,0.896 C -0.689,-0.485 -0.419,-0.069 0,0" /></g><g
           transform="translate(92.1635,57.3561)"
           id="g56"><path
             id="path58"
             style="fill:#ffc85e;fill-opacity:1;fill-rule:nonzero;stroke:none"
             d="m 0,0 -1.677,-2.703 1.468,-0.909 c 1.203,-0.745 2.08,-0.663 2.64,0.242 0.554,0.894 0.239,1.716 -0.964,2.461 z m 2.37,0.18 c 1.82,-1.128 2.366,-2.764 1.381,-4.352 -0.992,-1.6 -2.73,-1.867 -4.54,-0.746 l -1.632,1.013 -1.266,-2.041 c -0.224,-0.365 -0.7,-0.468 -1.066,-0.241 -0.363,0.225 -0.471,0.69 -0.247,1.054 l 3.994,6.444 c 0.247,0.397 0.74,0.503 1.127,0.264 z" /></g><g
           transform="translate(102.1956,50.8992)"
           id="g60"><path
             id="path62"
             style="fill:#ffc85e;fill-opacity:1;fill-rule:nonzero;stroke:none"
             d="m 0,0 -2.85,-2.643 2.476,-1.231 z m -0.51,-5.402 -3.477,1.728 -1.182,-1.095 c -0.32,-0.29 -0.802,-0.268 -1.091,0.05 -0.298,0.308 -0.292,0.783 0.025,1.075 l 5.888,5.339 C 0.089,2.073 0.524,2.162 0.966,1.942 1.419,1.717 1.63,1.293 1.573,0.683 L 0.882,-7.182 c -0.038,-0.43 -0.417,-0.721 -0.84,-0.67 -0.431,0.04 -0.74,0.411 -0.7,0.84 z" /></g><g
           transform="translate(111.234,47.6792)"
           id="g64"><path
             id="path66"
             style="fill:#ffc85e;fill-opacity:1;fill-rule:nonzero;stroke:none"
             d="M 0,0 -1.099,-2.986 0.52,-3.585 c 1.33,-0.489 2.171,-0.232 2.541,0.768 0.364,0.987 -0.112,1.729 -1.439,2.22 z m 0.178,-4.967 -1.768,0.652 -0.831,-2.256 c -0.148,-0.402 -0.594,-0.597 -0.998,-0.449 -0.401,0.148 -0.6,0.582 -0.452,0.984 l 2.624,7.118 c 0.16,0.44 0.623,0.643 1.05,0.486 L 2.29,0.651 C 4.3,-0.09 5.163,-1.585 4.516,-3.339 4.053,-4.595 3.083,-5.276 1.816,-5.294 L 2.332,-7.796 C 2.414,-8.366 2.19,-8.672 1.751,-8.773 1.243,-8.877 0.932,-8.665 0.814,-8.123 Z" /></g><g
           transform="translate(123.7144,42.9782)"
           id="g68"><path
             id="path70"
             style="fill:#ffc85e;fill-opacity:1;fill-rule:nonzero;stroke:none"
             d="m 0,0 -2.222,-3.187 2.681,-0.676 z m 0.651,-5.384 -3.763,0.948 -0.92,-1.32 c -0.249,-0.352 -0.725,-0.433 -1.078,-0.184 -0.355,0.237 -0.453,0.703 -0.203,1.055 l 4.615,6.468 c 0.345,0.461 0.751,0.64 1.229,0.52 0.49,-0.124 0.786,-0.493 0.86,-1.101 l 1,-7.828 C 2.444,-7.254 2.137,-7.619 1.713,-7.659 1.283,-7.712 0.903,-7.415 0.85,-6.987 Z" /></g><g
           transform="translate(138.8694,39.6916)"
           id="g72"><path
             id="path74"
             style="fill:#ffc85e;fill-opacity:1;fill-rule:nonzero;stroke:none"
             d="m 0,0 -0.474,-5.633 c -0.016,-1.107 -1.725,-0.963 -1.541,0.13 l 0.617,7.329 C -1.343,2.499 -0.896,2.84 -0.326,2.792 0.023,2.762 0.271,2.611 0.431,2.337 L 4.19,-4.122 4.668,1.537 C 4.696,2.644 6.404,2.499 6.222,1.406 L 5.605,-5.923 C 5.548,-6.596 5.102,-6.937 4.533,-6.889 4.182,-6.86 3.935,-6.709 3.774,-6.435 Z" /></g><g
           transform="translate(156.9842,36.8722)"
           id="g76"><path
             id="path78"
             style="fill:#ffc85e;fill-opacity:1;fill-rule:nonzero;stroke:none"
             d="m 0,0 c 0.07,-2.714 -1.321,-4.217 -3.569,-4.274 -2.245,-0.057 -3.71,1.373 -3.78,4.087 l -0.11,4.362 c -0.011,0.429 0.33,0.774 0.759,0.786 0.429,0.011 0.786,-0.305 0.799,-0.734 l 0.11,-4.388 c 0.049,-1.843 0.772,-2.747 2.188,-2.711 1.415,0.036 2.091,0.976 2.045,2.832 l -0.11,4.363 c -0.013,0.428 0.33,0.774 0.759,0.785 0.427,0.011 0.786,-0.317 0.797,-0.746 z" /></g><g
           transform="translate(161.3142,41.5045)"
           id="g80"><path
             id="path82"
             style="fill:#ffc85e;fill-opacity:1;fill-rule:nonzero;stroke:none"
             d="m 0,0 c -0.061,0.464 0.254,0.858 0.706,0.918 l 4.973,0.65 C 6.053,1.617 6.415,1.35 6.467,0.95 6.516,0.577 6.248,0.227 5.848,0.175 L 1.609,-0.38 1.913,-2.712 5.947,-2.184 c 0.372,0.049 0.736,-0.218 0.789,-0.617 0.051,-0.4 -0.233,-0.738 -0.607,-0.787 l -4.032,-0.527 0.33,-2.513 4.237,0.555 c 0.4,0.052 0.751,-0.217 0.799,-0.591 0.051,-0.399 -0.23,-0.751 -0.602,-0.799 l -4.975,-0.65 c -0.45,-0.06 -0.856,0.242 -0.918,0.705 z" /></g><g
           transform="translate(173.579,37.1915)"
           id="g84"><path
             id="path86"
             style="fill:#ffc85e;fill-opacity:1;fill-rule:nonzero;stroke:none"
             d="M 0,0 C 0.19,0.38 0.672,0.548 1.057,0.331 1.317,0.192 1.543,0.086 1.723,0.008 2.074,-0.123 2.835,-0.236 3.594,-0.055 4.67,0.201 5.163,0.826 4.998,1.521 4.84,2.192 4.256,2.509 3.243,2.441 L 2.125,2.363 c -1.755,-0.097 -2.943,0.571 -3.281,2 -0.182,0.76 -0.022,1.438 0.473,2.052 0.497,0.612 1.176,1.013 2.049,1.222 0.469,0.111 0.9,0.147 1.321,0.125 C 3.106,7.742 3.41,7.694 3.628,7.625 3.846,7.556 4.093,7.469 4.379,7.336 4.782,7.151 4.947,6.683 4.757,6.304 4.567,5.924 4.108,5.775 3.73,5.965 3.017,6.317 2.324,6.42 1.628,6.255 0.615,6.014 0.207,5.369 0.353,4.762 0.503,4.129 1.091,3.842 2.106,3.908 L 3.028,3.967 C 5.009,4.118 6.165,3.363 6.51,1.908 6.692,1.148 6.535,0.457 6.04,-0.169 5.546,-0.781 4.78,-1.217 3.73,-1.466 3.224,-1.587 2.738,-1.622 2.262,-1.588 1.799,-1.551 1.448,-1.487 1.228,-1.406 1.006,-1.312 0.723,-1.191 0.391,-1.03 -0.013,-0.846 -0.19,-0.38 0,0" /></g><g
           transform="translate(188.0764,48.637)"
           id="g88"><path
             id="path90"
             style="fill:#ffc85e;fill-opacity:1;fill-rule:nonzero;stroke:none"
             d="m 0,0 c 0.983,0.41 1.486,-1.036 0.459,-1.324 l -1.985,-0.69 2.298,-6.606 c 0.139,-0.405 -0.081,-0.838 -0.484,-0.979 -0.404,-0.14 -0.836,0.067 -0.975,0.472 l -2.296,6.606 -1.926,-0.669 c -0.983,-0.411 -1.487,1.036 -0.459,1.323 z" /></g><g
           transform="translate(194.3557,49.7417)"
           id="g92"><path
             id="path94"
             style="fill:#ffc85e;fill-opacity:1;fill-rule:nonzero;stroke:none"
             d="m 0,0 1.345,-2.881 1.564,0.73 C 4.19,-1.554 4.601,-0.776 4.15,0.189 3.706,1.142 2.848,1.328 1.565,0.729 Z M 3.647,-3.368 1.943,-4.163 2.956,-6.339 C 3.138,-6.726 2.962,-7.18 2.575,-7.362 2.186,-7.543 1.738,-7.379 1.558,-6.991 l -3.203,6.868 C -1.844,0.3 -1.662,0.772 -1.25,0.963 l 2.4,1.12 C 3.089,2.987 4.755,2.547 5.546,0.853 6.11,-0.358 5.909,-1.525 5.032,-2.436 L 7.169,-3.83 C 7.63,-4.174 7.692,-4.547 7.455,-4.929 7.169,-5.363 6.802,-5.434 6.334,-5.137 Z" /></g><g
           transform="translate(207.3879,50.2597)"
           id="g96"><path
             id="path98"
             style="fill:#ffc85e;fill-opacity:1;fill-rule:nonzero;stroke:none"
             d="M 0,0 C 0.822,-0.229 1.607,-0.118 2.372,0.347 3.116,0.798 3.575,1.442 3.74,2.272 3.899,3.112 3.738,3.926 3.254,4.725 2.776,5.514 2.127,6.031 1.315,6.268 0.503,6.503 -0.281,6.392 -1.023,5.941 -1.791,5.476 -2.25,4.832 -2.425,3.996 -2.59,3.167 -2.431,2.353 -1.951,1.565 -1.461,0.755 -0.812,0.237 0,0 m -3.918,4.276 c 0.29,1.224 0.988,2.179 2.108,2.86 1.121,0.68 2.29,0.858 3.52,0.557 C 2.941,7.391 3.899,6.666 4.586,5.534 5.279,4.391 5.482,3.207 5.182,1.977 4.88,0.745 4.184,-0.209 3.064,-0.89 c -1.123,-0.681 -2.29,-0.858 -3.51,-0.551 -1.209,0.315 -2.167,1.04 -2.861,2.183 -0.687,1.133 -0.89,2.316 -0.611,3.534" /></g><g
           transform="translate(217.1896,56.5633)"
           id="g100"><path
             id="path102"
             style="fill:#ffc85e;fill-opacity:1;fill-rule:nonzero;stroke:none"
             d="M 0,0 C 0.017,0.423 0.387,0.773 0.825,0.735 1.118,0.716 1.368,0.711 1.562,0.715 1.937,0.74 2.677,0.95 3.292,1.426 4.165,2.099 4.357,2.871 3.922,3.436 3.501,3.98 2.842,4.029 1.947,3.551 L 0.962,3.021 c -1.556,-0.807 -2.909,-0.689 -3.806,0.473 -0.475,0.616 -0.611,1.299 -0.41,2.06 0.199,0.76 0.653,1.405 1.362,1.953 0.38,0.292 0.759,0.503 1.148,0.656 0.391,0.153 0.687,0.236 0.913,0.262 C 0.395,8.452 0.658,8.473 0.97,8.47 1.414,8.469 1.757,8.109 1.74,7.686 1.721,7.262 1.366,6.939 0.943,6.956 0.15,6.984 -0.522,6.793 -1.087,6.358 -1.909,5.723 -2.015,4.968 -1.634,4.476 -1.239,3.962 -0.584,3.942 0.311,4.419 L 1.125,4.851 C 2.867,5.801 4.226,5.589 5.138,4.407 5.613,3.791 5.755,3.097 5.565,2.327 5.364,1.566 4.846,0.855 3.994,0.198 3.584,-0.119 3.154,-0.352 2.708,-0.516 2.273,-0.672 1.928,-0.758 1.696,-0.774 1.452,-0.78 1.148,-0.786 0.778,-0.776 0.334,-0.775 -0.019,-0.424 0,0" /></g><g
           transform="translate(229.5854,74.0154)"
           id="g104"><path
             id="path106"
             style="fill:#ffc85e;fill-opacity:1;fill-rule:nonzero;stroke:none"
             d="m 0,0 1.704,-3.49 1.892,2.013 z M 5.017,-2.049 2.362,-4.873 3.066,-6.319 C 3.252,-6.709 3.091,-7.163 2.702,-7.349 2.324,-7.545 1.869,-7.402 1.683,-7.014 l -3.404,7.173 c -0.237,0.525 -0.195,0.966 0.144,1.325 0.347,0.369 0.812,0.447 1.378,0.217 l 7.32,-2.933 C 7.52,-1.393 7.692,-1.838 7.518,-2.228 7.358,-2.628 6.914,-2.816 6.514,-2.653 Z" /></g><g
           transform="translate(245.1674,83.3392)"
           id="g108"><path
             id="path110"
             style="fill:#ffc85e;fill-opacity:1;fill-rule:nonzero;stroke:none"
             d="m 0,0 c 0.949,-0.595 -0.076,-1.968 -0.924,-1.239 l -4.184,3.121 1.869,-3.921 c 0.159,-0.33 0.129,-0.631 -0.08,-0.911 -0.218,-0.292 -0.516,-0.41 -0.878,-0.351 l -4.279,0.667 4.182,-3.121 C -3.345,-6.35 -4.37,-7.723 -5.218,-6.993 l -5.869,4.378 c -0.541,0.403 -0.613,0.96 -0.271,1.417 0.241,0.323 0.594,0.449 1.07,0.369 l 5.317,-0.906 -2.382,4.84 c -0.212,0.432 -0.193,0.806 0.048,1.129 0.341,0.458 0.895,0.547 1.436,0.144 z" /></g><g
           transform="translate(248.9689,89.2697)"
           id="g112"><path
             id="path114"
             style="fill:#ffc85e;fill-opacity:1;fill-rule:nonzero;stroke:none"
             d="M 0,0 C 0.366,-0.223 0.471,-0.699 0.249,-1.066 0.025,-1.431 -0.44,-1.543 -0.806,-1.32 l -6.581,4.016 c -0.368,0.223 -0.474,0.698 -0.25,1.065 0.224,0.366 0.687,0.479 1.055,0.255 z" /></g><g
           transform="translate(247.0238,98.4592)"
           id="g116"><path
             id="path118"
             style="fill:#ffc85e;fill-opacity:1;fill-rule:nonzero;stroke:none"
             d="m 0,0 c 0.298,-0.801 0.875,-1.421 1.723,-1.843 0.837,-0.416 1.668,-0.495 2.493,-0.238 0.818,0.274 1.438,0.822 1.848,1.648 0.359,0.721 0.444,1.447 0.245,2.184 L 5.112,2.346 4.436,0.985 C 4.256,0.625 3.844,0.497 3.508,0.664 3.146,0.844 3.011,1.273 3.18,1.61 l 0.994,2 C 4.376,4.017 4.852,4.186 5.271,3.978 L 6.899,3.169 C 7.281,2.978 7.539,2.618 7.668,2.091 7.943,0.982 7.799,-0.122 7.252,-1.226 6.679,-2.377 5.804,-3.146 4.626,-3.561 c -1.19,-0.41 -2.387,-0.308 -3.607,0.3 -1.245,0.618 -2.072,1.522 -2.457,2.7 -0.38,1.19 -0.279,2.387 0.322,3.596 0.573,1.151 1.448,1.92 2.615,2.282 C 2.015,5.452 2.324,5.226 2.446,4.803 2.558,4.385 2.355,4.094 1.837,3.93 1.112,3.725 0.556,3.219 0.163,2.428 -0.235,1.626 -0.292,0.812 0,0" /></g><g
           transform="translate(256.4258,107.9935)"
           id="g120"><path
             id="path122"
             style="fill:#ffc85e;fill-opacity:1;fill-rule:nonzero;stroke:none"
             d="M 0,0 C 0.784,0.339 1.324,0.918 1.628,1.761 1.922,2.58 1.875,3.37 1.482,4.119 1.076,4.872 0.44,5.405 -0.442,5.721 -1.309,6.033 -2.14,6.028 -2.92,5.701 -3.7,5.373 -4.239,4.795 -4.533,3.976 -4.835,3.132 -4.789,2.343 -4.4,1.581 -4.006,0.833 -3.37,0.3 -2.501,-0.012 -1.609,-0.332 -0.78,-0.327 0,0 m -5.736,0.86 c -0.543,1.135 -0.603,2.316 -0.159,3.55 0.444,1.235 1.242,2.107 2.387,2.647 1.146,0.542 2.347,0.579 3.595,0.13 C 1.345,6.735 2.247,5.942 2.787,4.795 3.328,3.648 3.387,2.468 2.943,1.234 2.499,-0.001 1.702,-0.874 0.56,-1.402 -0.579,-1.918 -1.778,-1.956 -3.038,-1.503 -4.286,-1.055 -5.186,-0.261 -5.736,0.86" /></g><g
           transform="translate(260.0962,119.0689)"
           id="g124"><path
             id="path126"
             style="fill:#ffc85e;fill-opacity:1;fill-rule:nonzero;stroke:none"
             d="M 0,0 C -0.254,0.341 -0.186,0.847 0.18,1.094 0.421,1.263 0.617,1.418 0.767,1.542 1.042,1.798 1.486,2.427 1.666,3.186 1.922,4.262 1.586,4.983 0.89,5.149 0.218,5.308 -0.326,4.929 -0.721,3.995 L -1.154,2.961 C -1.858,1.351 -2.987,0.59 -4.417,0.929 -5.176,1.11 -5.711,1.558 -6.036,2.276 c -0.324,0.719 -0.377,1.506 -0.169,2.38 0.112,0.468 0.272,0.871 0.48,1.235 0.207,0.366 0.389,0.618 0.547,0.779 0.159,0.163 0.349,0.346 0.596,0.541 0.347,0.279 0.84,0.215 1.093,-0.126 0.252,-0.341 0.18,-0.818 -0.162,-1.071 -0.635,-0.478 -1.038,-1.05 -1.203,-1.746 -0.241,-1.012 0.152,-1.666 0.759,-1.811 0.634,-0.15 1.156,0.247 1.552,1.182 l 0.361,0.85 C -1.425,6.327 -0.23,7.019 1.224,6.674 1.983,6.493 2.531,6.041 2.869,5.321 3.193,4.602 3.237,3.722 2.987,2.672 2.867,2.166 2.681,1.716 2.436,1.307 2.195,0.909 1.981,0.626 1.808,0.466 1.624,0.31 1.389,0.111 1.095,-0.113 0.748,-0.391 0.254,-0.34 0,0" /></g><g
           transform="translate(45.6564,175.087)"
           id="g128"><path
             id="path130"
             style="fill:#ffc85e;fill-opacity:1;fill-rule:nonzero;stroke:none"
             d="M 0,0 5.801,-1.186 C 7.463,-1.526 8.267,-2.787 7.969,-4.245 7.671,-5.704 6.438,-6.548 4.774,-6.207 l -5.802,1.186 -13.332,-3.672 c -1.734,-0.352 -2.803,0.468 -3.102,1.943 -0.293,1.332 0.527,2.579 2.165,2.986 l 9.322,2.371 -7.637,5.873 c -1.346,1.017 -1.611,2.485 -0.82,3.595 0.854,1.24 2.161,1.574 3.616,0.569 z" /></g><g
           transform="translate(53.515,193.2347)"
           id="g132"><path
             id="path134"
             style="fill:#ffc85e;fill-opacity:1;fill-rule:nonzero;stroke:none"
             d="m 0,0 c 1.922,0.507 3.366,1.759 4.376,3.771 0.982,1.95 1.125,3.855 0.368,5.67 -0.737,1.845 -2.053,3.242 -4.002,4.222 -1.888,0.95 -3.81,1.14 -5.746,0.602 C -6.943,13.727 -8.387,12.552 -9.337,10.664 -10.332,8.683 -10.476,6.777 -9.751,4.901 -9.011,3.056 -7.698,1.659 -5.778,0.693 -3.829,-0.286 -1.922,-0.507 0,0 m -14.527,3.191 c -1.061,3.21 -0.776,6.401 0.795,9.527 1.588,3.158 3.979,5.291 7.203,6.384 3.195,1.108 6.4,0.853 9.62,-0.764 3.25,-1.634 5.368,-4.055 6.415,-7.296 1.015,-3.225 0.729,-6.416 -0.859,-9.574 -1.571,-3.126 -3.962,-5.259 -7.14,-6.336 -3.209,-1.062 -6.416,-0.808 -9.666,0.826 -3.22,1.618 -5.336,4.04 -6.368,7.233" /></g><g
           transform="translate(77.0149,249.8564)"
           id="g136"><path
             id="path138"
             style="fill:#ffc85e;fill-opacity:1;fill-rule:nonzero;stroke:none"
             d="M 0,0 C 1.197,0.999 2.584,0.85 3.472,-0.214 4.338,-1.252 4.237,-2.644 3.04,-3.643 L -0.63,-6.706 10.227,-19.71 c 1.086,-1.304 0.902,-2.812 -0.241,-3.767 -1.144,-0.954 -2.635,-0.844 -3.721,0.459 l -10.857,13.004 -3.643,-3.041 c -1.197,-0.999 -2.586,-0.85 -3.45,0.188 -0.888,1.063 -0.789,2.455 0.408,3.454 z" /></g><g
           transform="translate(100.0243,247.3658)"
           id="g140"><path
             id="path142"
             style="fill:#ffc85e;fill-opacity:1;fill-rule:nonzero;stroke:none"
             d="m 0,0 2.285,-4.782 9.532,4.555 c 1.406,0.671 2.714,0.183 3.31,-1.067 0.584,-1.219 0.142,-2.543 -1.264,-3.216 L 2.643,-9.869 c -1.876,-0.897 -3.491,-0.326 -4.387,1.549 L -9.36,7.619 c -0.896,1.875 -0.323,3.491 1.55,4.387 l 11.22,5.36 C 4.816,18.039 6.125,17.55 6.721,16.301 7.305,15.082 6.863,13.757 5.455,13.085 L -4.076,8.531 -2.015,4.218 7.017,8.534 C 8.391,9.191 9.7,8.702 10.282,7.483 10.833,6.328 10.406,4.972 9.032,4.315 Z" /></g><g
           transform="translate(145.8464,266.7334)"
           id="g144"><path
             id="path146"
             style="fill:#ffc85e;fill-opacity:1;fill-rule:nonzero;stroke:none"
             d="m 0,0 -2.679,-8.054 6.024,0.252 z m -3.527,4.674 c 0.525,1.582 1.601,2.39 3.193,2.456 1.628,0.069 2.768,-0.646 3.419,-2.145 l 8.203,-18.591 c 0.653,-1.499 -0.021,-2.81 -1.387,-3.319 -1.469,-0.512 -2.567,-0.004 -3.29,1.562 l -1.412,3.061 -9.383,-0.393 -1.114,-3.168 c -0.525,-1.583 -1.783,-2.191 -3.151,-1.832 -1.403,0.392 -2.184,1.643 -1.659,3.19 z" /></g><g
           transform="translate(173.2153,266.9162)"
           id="g148"><path
             id="path150"
             style="fill:#ffc85e;fill-opacity:1;fill-rule:nonzero;stroke:none"
             d="m 0,0 -3.461,-14.34 2.019,-0.488 c 5.892,-1.422 9.413,0.329 10.592,5.209 1.129,4.679 -1.272,7.717 -7.163,9.139 z m -6.393,-18.513 c -2.02,0.487 -2.914,1.95 -2.426,3.97 l 4.144,17.168 c 0.489,2.019 1.952,2.913 3.971,2.426 L 3.873,3.945 C 7.241,3.132 10.034,1.568 12.17,-0.8 c 2.177,-2.343 3.046,-5.973 2.063,-10.046 -1,-4.14 -3.429,-6.974 -6.436,-8.208 -2.987,-1.166 -6.279,-1.37 -9.611,-0.564 z" /></g><g
           transform="translate(199.6667,244.1289)"
           id="g152"><path
             id="path154"
             style="fill:#ffc85e;fill-opacity:1;fill-rule:nonzero;stroke:none"
             d="m 0,0 c 0.37,-1.953 1.516,-3.481 3.45,-4.631 1.876,-1.117 3.764,-1.395 5.629,-0.77 1.892,0.608 3.378,1.819 4.492,3.694 1.081,1.816 1.406,3.718 1.007,5.688 -0.4,1.971 -1.468,3.493 -3.284,4.573 C 9.389,9.687 7.499,9.965 5.577,9.376 3.685,8.769 2.199,7.557 1.099,5.713 -0.015,3.837 -0.37,1.952 0,0 m 4.209,14.26 c 3.278,0.831 6.438,0.32 9.445,-1.468 3.036,-1.806 4.994,-4.341 5.856,-7.634 0.88,-3.264 0.398,-6.443 -1.444,-9.539 -1.858,-3.125 -4.423,-5.065 -7.729,-5.879 -3.288,-0.785 -6.449,-0.274 -9.485,1.532 -3.006,1.789 -4.964,4.323 -5.814,7.569 -0.831,3.275 -0.351,6.455 1.509,9.58 1.842,3.096 4.407,5.036 7.662,5.839" /></g><g
           transform="translate(234.0993,234.3706)"
           id="g156"><path
             id="path158"
             style="fill:#ffc85e;fill-opacity:1;fill-rule:nonzero;stroke:none"
             d="m 0,0 -5.157,-4.832 2.582,-2.755 c 2.393,-2.552 4.486,-3.012 6.228,-1.377 1.745,1.634 1.368,3.606 -1.072,6.209 z m -8.618,-8.077 -3.74,-3.506 c -1.239,-1.161 -2.755,-1.062 -3.774,0.024 -1.019,1.087 -0.993,2.581 0.243,3.742 L -2.469,4.76 c 1.518,1.421 3.23,1.366 4.651,-0.15 L 6.66,-0.167 c 1.966,-2.097 2.998,-4.262 3.121,-6.521 0.122,-2.258 -0.726,-4.241 -2.546,-5.946 -1.844,-1.729 -3.928,-2.495 -6.273,-2.271 -2.345,0.223 -4.463,1.37 -6.383,3.416 z" /></g><g
           transform="translate(261.8467,203.4285)"
           id="g160"><path
             id="path162"
             style="fill:#ffc85e;fill-opacity:1;fill-rule:nonzero;stroke:none"
             d="m 0,0 c 0.751,-1.367 0.338,-2.701 -0.877,-3.368 -1.184,-0.65 -2.531,-0.284 -3.282,1.081 l -2.302,4.191 -14.846,-8.158 c -1.487,-0.818 -2.933,-0.347 -3.65,0.959 -0.716,1.305 -0.323,2.746 1.165,3.564 l 14.845,8.158 -2.286,4.159 c -0.751,1.367 -0.336,2.7 0.848,3.351 1.213,0.667 2.56,0.301 3.313,-1.065 z" /></g><g
           transform="translate(251.7449,180.5788)"
           id="g164"><path
             id="path166"
             style="fill:#ffc85e;fill-opacity:1;fill-rule:nonzero;stroke:none"
             d="m 0,0 c -1.137,-1.628 -1.431,-3.516 -0.903,-5.704 0.512,-2.121 1.635,-3.666 3.383,-4.563 1.755,-0.93 3.66,-1.147 5.78,-0.634 2.055,0.495 3.643,1.591 4.772,3.254 1.131,1.662 1.474,3.489 0.979,5.543 C 13.491,0.051 12.368,1.597 10.605,2.56 8.848,3.49 6.943,3.707 4.856,3.203 2.736,2.691 1.14,1.629 0,0 m 13.142,6.95 c 2.884,-1.763 4.728,-4.381 5.548,-7.781 0.829,-3.433 0.385,-6.605 -1.37,-9.522 -1.721,-2.91 -4.33,-4.786 -7.831,-5.632 -3.535,-0.853 -6.715,-0.374 -9.605,1.422 -2.859,1.804 -4.702,4.422 -5.531,7.857 -0.82,3.399 -0.376,6.571 1.353,9.446 1.761,2.883 4.372,4.76 7.907,5.613 3.501,0.846 6.679,0.366 9.529,-1.403" /></g><g
           transform="translate(167.4662,223.531)"
           id="g168"><path
             id="path170"
             style="fill:#d15454;fill-opacity:1;fill-rule:nonzero;stroke:none"
             d="m 0,0 c 1.494,6.709 -2.143,11.479 -6.154,13.072 -4.011,1.594 -8.184,0.196 -10.91,-3.558 -2.726,3.753 -6.901,5.15 -10.911,3.559 -4.01,-1.593 -7.646,-6.364 -6.152,-13.071 1.038,-4.667 4.276,-9.144 9.362,-12.946 3.806,-2.846 7.261,-4.304 7.406,-4.365 0.095,-0.04 0.194,-0.059 0.295,-0.059 0.101,0 0.201,0.019 0.296,0.059 0.145,0.061 3.6,1.519 7.406,4.365 C -4.277,-9.143 -1.04,-4.666 0,0" /></g><g
           transform="translate(215.8883,163.7451)"
           id="g172"><path
             id="path174"
             style="fill:#553457;fill-opacity:1;fill-rule:nonzero;stroke:none"
             d="m 0,0 c 0,1.794 -1.454,3.248 -3.248,3.248 -1.793,0 -3.247,-1.454 -3.247,-3.248 0,-3.73 -3.035,-6.765 -6.765,-6.765 -3.729,0 -6.763,3.035 -6.763,6.765 0,1.794 -1.454,3.248 -3.248,3.248 -1.793,0 -3.247,-1.454 -3.247,-3.248 0,-6.158 4.225,-11.334 9.925,-12.818 -1.399,-24.682 -21.118,-44.531 -45.74,-46.148 v 40.827 c 0,0.116 -0.023,0.225 -0.034,0.338 3.451,0.713 6.706,2.576 9.12,5.611 l 6.598,8.293 c 4.765,5.99 0.499,14.833 -7.155,14.833 h -23.554 c -7.654,0 -11.919,-8.843 -7.154,-14.833 l 6.597,-8.293 c 2.414,-3.035 5.67,-4.898 9.121,-5.611 -0.012,-0.113 -0.034,-0.222 -0.034,-0.338 v -40.826 c -24.622,1.619 -44.339,21.467 -45.738,46.147 5.7,1.484 9.927,6.66 9.927,12.818 0,1.794 -1.454,3.248 -3.248,3.248 -1.794,0 -3.247,-1.454 -3.247,-3.248 0,-3.73 -3.035,-6.765 -6.765,-6.765 -3.73,0 -6.765,3.035 -6.765,6.765 0,1.794 -1.453,3.248 -3.247,3.248 -1.794,0 -3.248,-1.454 -3.248,-3.248 0,-6.215 4.305,-11.43 10.085,-12.859 1.487,-29.321 25.809,-52.719 55.492,-52.721 10e-4,0 10e-4,0 10e-4,0 0,0 0,0 0.001,0 0,0 0.001,0 0.001,0 29.685,0 54.008,23.399 55.495,52.721 C -4.304,-11.43 0,-6.215 0,0" /></g></g></g></g></svg>